<svg xmlns="http://www.w3.org/2000/svg" xmlns:xlink="http://www.w3.org/1999/xlink" width="451.161" height="139.896" viewBox="0 0 451.161 139.896"><defs><style>.a{fill:none;}.b{clip-path:url(#a);}.c{fill:#303d5d;}</style><clipPath id="a"><rect class="a" width="451.161" height="139.896"/></clipPath></defs><g class="b"><g transform="translate(-119 -1478.104)"><circle class="c" cx="3.948" cy="3.948" r="3.948" transform="translate(119 1478.104)"/><circle class="c" cx="3.948" cy="3.948" r="3.948" transform="translate(129.265 1478.104)"/></g><g transform="translate(-97 -1478.104)"><circle class="c" cx="3.948" cy="3.948" r="3.948" transform="translate(119 1478.104)"/><circle class="c" cx="3.948" cy="3.948" r="3.948" transform="translate(129.265 1478.104)"/></g><g transform="translate(-75 -1478.104)"><circle class="c" cx="3.948" cy="3.948" r="3.948" transform="translate(119 1478.104)"/><circle class="c" cx="3.948" cy="3.948" r="3.948" transform="translate(129.265 1478.104)"/></g><g transform="translate(-53 -1478.104)"><circle class="c" cx="3.948" cy="3.948" r="3.948" transform="translate(119 1478.104)"/><circle class="c" cx="3.948" cy="3.948" r="3.948" transform="translate(129.265 1478.104)"/></g><g transform="translate(-31 -1478.104)"><circle class="c" cx="3.948" cy="3.948" r="3.948" transform="translate(119 1478.104)"/><circle class="c" cx="3.948" cy="3.948" r="3.948" transform="translate(129.265 1478.104)"/></g><g transform="translate(-9 -1478.104)"><circle class="c" cx="3.948" cy="3.948" r="3.948" transform="translate(119 1478.104)"/><circle class="c" cx="3.948" cy="3.948" r="3.948" transform="translate(129.265 1478.104)"/></g><g transform="translate(13 -1478.104)"><circle class="c" cx="3.948" cy="3.948" r="3.948" transform="translate(119 1478.104)"/><circle class="c" cx="3.948" cy="3.948" r="3.948" transform="translate(129.265 1478.104)"/></g><g transform="translate(35 -1478.104)"><circle class="c" cx="3.948" cy="3.948" r="3.948" transform="translate(119 1478.104)"/><circle class="c" cx="3.948" cy="3.948" r="3.948" transform="translate(129.265 1478.104)"/></g><g transform="translate(57 -1478.104)"><circle class="c" cx="3.948" cy="3.948" r="3.948" transform="translate(119 1478.104)"/><circle class="c" cx="3.948" cy="3.948" r="3.948" transform="translate(129.265 1478.104)"/></g><g transform="translate(79 -1478.104)"><circle class="c" cx="3.948" cy="3.948" r="3.948" transform="translate(119 1478.104)"/><circle class="c" cx="3.948" cy="3.948" r="3.948" transform="translate(129.265 1478.104)"/></g><g transform="translate(101 -1478.104)"><circle class="c" cx="3.948" cy="3.948" r="3.948" transform="translate(119 1478.104)"/><circle class="c" cx="3.948" cy="3.948" r="3.948" transform="translate(129.265 1478.104)"/></g><g transform="translate(123 -1478.104)"><circle class="c" cx="3.948" cy="3.948" r="3.948" transform="translate(119 1478.104)"/><circle class="c" cx="3.948" cy="3.948" r="3.948" transform="translate(129.265 1478.104)"/></g><g transform="translate(145 -1478.104)"><circle class="c" cx="3.948" cy="3.948" r="3.948" transform="translate(119 1478.104)"/><circle class="c" cx="3.948" cy="3.948" r="3.948" transform="translate(129.265 1478.104)"/></g><g transform="translate(167 -1478.104)"><circle class="c" cx="3.948" cy="3.948" r="3.948" transform="translate(119 1478.104)"/><circle class="c" cx="3.948" cy="3.948" r="3.948" transform="translate(129.265 1478.104)"/></g><g transform="translate(189 -1478.104)"><circle class="c" cx="3.948" cy="3.948" r="3.948" transform="translate(119 1478.104)"/><circle class="c" cx="3.948" cy="3.948" r="3.948" transform="translate(129.265 1478.104)"/></g><g transform="translate(211 -1478.104)"><circle class="c" cx="3.948" cy="3.948" r="3.948" transform="translate(119 1478.104)"/><circle class="c" cx="3.948" cy="3.948" r="3.948" transform="translate(129.265 1478.104)"/></g><g transform="translate(233 -1478.104)"><circle class="c" cx="3.948" cy="3.948" r="3.948" transform="translate(119 1478.104)"/><circle class="c" cx="3.948" cy="3.948" r="3.948" transform="translate(129.265 1478.104)"/></g><g transform="translate(255 -1478.104)"><circle class="c" cx="3.948" cy="3.948" r="3.948" transform="translate(119 1478.104)"/><circle class="c" cx="3.948" cy="3.948" r="3.948" transform="translate(129.265 1478.104)"/></g><g transform="translate(277 -1478.104)"><circle class="c" cx="3.948" cy="3.948" r="3.948" transform="translate(119 1478.104)"/><circle class="c" cx="3.948" cy="3.948" r="3.948" transform="translate(129.265 1478.104)"/></g><g transform="translate(299 -1478.104)"><circle class="c" cx="3.948" cy="3.948" r="3.948" transform="translate(119 1478.104)"/><circle class="c" cx="3.948" cy="3.948" r="3.948" transform="translate(129.265 1478.104)"/></g><g transform="translate(321 -1478.104)"><circle class="c" cx="3.948" cy="3.948" r="3.948" transform="translate(119 1478.104)"/><circle class="c" cx="3.948" cy="3.948" r="3.948" transform="translate(129.265 1478.104)"/></g><g transform="translate(-119 -1466.104)"><circle class="c" cx="3.948" cy="3.948" r="3.948" transform="translate(119 1478.104)"/><circle class="c" cx="3.948" cy="3.948" r="3.948" transform="translate(129.265 1478.104)"/></g><g transform="translate(-97 -1466.104)"><circle class="c" cx="3.948" cy="3.948" r="3.948" transform="translate(119 1478.104)"/><circle class="c" cx="3.948" cy="3.948" r="3.948" transform="translate(129.265 1478.104)"/></g><g transform="translate(-75 -1466.104)"><circle class="c" cx="3.948" cy="3.948" r="3.948" transform="translate(119 1478.104)"/><circle class="c" cx="3.948" cy="3.948" r="3.948" transform="translate(129.265 1478.104)"/></g><g transform="translate(-53 -1466.104)"><circle class="c" cx="3.948" cy="3.948" r="3.948" transform="translate(119 1478.104)"/><circle class="c" cx="3.948" cy="3.948" r="3.948" transform="translate(129.265 1478.104)"/></g><g transform="translate(-31 -1466.104)"><circle class="c" cx="3.948" cy="3.948" r="3.948" transform="translate(119 1478.104)"/><circle class="c" cx="3.948" cy="3.948" r="3.948" transform="translate(129.265 1478.104)"/></g><g transform="translate(-9 -1466.104)"><circle class="c" cx="3.948" cy="3.948" r="3.948" transform="translate(119 1478.104)"/><circle class="c" cx="3.948" cy="3.948" r="3.948" transform="translate(129.265 1478.104)"/></g><g transform="translate(13 -1466.104)"><circle class="c" cx="3.948" cy="3.948" r="3.948" transform="translate(119 1478.104)"/><circle class="c" cx="3.948" cy="3.948" r="3.948" transform="translate(129.265 1478.104)"/></g><g transform="translate(35 -1466.104)"><circle class="c" cx="3.948" cy="3.948" r="3.948" transform="translate(119 1478.104)"/><circle class="c" cx="3.948" cy="3.948" r="3.948" transform="translate(129.265 1478.104)"/></g><g transform="translate(57 -1466.104)"><circle class="c" cx="3.948" cy="3.948" r="3.948" transform="translate(119 1478.104)"/><circle class="c" cx="3.948" cy="3.948" r="3.948" transform="translate(129.265 1478.104)"/></g><g transform="translate(79 -1466.104)"><circle class="c" cx="3.948" cy="3.948" r="3.948" transform="translate(119 1478.104)"/><circle class="c" cx="3.948" cy="3.948" r="3.948" transform="translate(129.265 1478.104)"/></g><g transform="translate(101 -1466.104)"><circle class="c" cx="3.948" cy="3.948" r="3.948" transform="translate(119 1478.104)"/><circle class="c" cx="3.948" cy="3.948" r="3.948" transform="translate(129.265 1478.104)"/></g><g transform="translate(123 -1466.104)"><circle class="c" cx="3.948" cy="3.948" r="3.948" transform="translate(119 1478.104)"/><circle class="c" cx="3.948" cy="3.948" r="3.948" transform="translate(129.265 1478.104)"/></g><g transform="translate(145 -1466.104)"><circle class="c" cx="3.948" cy="3.948" r="3.948" transform="translate(119 1478.104)"/><circle class="c" cx="3.948" cy="3.948" r="3.948" transform="translate(129.265 1478.104)"/></g><g transform="translate(167 -1466.104)"><circle class="c" cx="3.948" cy="3.948" r="3.948" transform="translate(119 1478.104)"/><circle class="c" cx="3.948" cy="3.948" r="3.948" transform="translate(129.265 1478.104)"/></g><g transform="translate(189 -1466.104)"><circle class="c" cx="3.948" cy="3.948" r="3.948" transform="translate(119 1478.104)"/><circle class="c" cx="3.948" cy="3.948" r="3.948" transform="translate(129.265 1478.104)"/></g><g transform="translate(211 -1466.104)"><circle class="c" cx="3.948" cy="3.948" r="3.948" transform="translate(119 1478.104)"/><circle class="c" cx="3.948" cy="3.948" r="3.948" transform="translate(129.265 1478.104)"/></g><g transform="translate(233 -1466.104)"><circle class="c" cx="3.948" cy="3.948" r="3.948" transform="translate(119 1478.104)"/><circle class="c" cx="3.948" cy="3.948" r="3.948" transform="translate(129.265 1478.104)"/></g><g transform="translate(255 -1466.104)"><circle class="c" cx="3.948" cy="3.948" r="3.948" transform="translate(119 1478.104)"/><circle class="c" cx="3.948" cy="3.948" r="3.948" transform="translate(129.265 1478.104)"/></g><g transform="translate(277 -1466.104)"><circle class="c" cx="3.948" cy="3.948" r="3.948" transform="translate(119 1478.104)"/><circle class="c" cx="3.948" cy="3.948" r="3.948" transform="translate(129.265 1478.104)"/></g><g transform="translate(299 -1466.104)"><circle class="c" cx="3.948" cy="3.948" r="3.948" transform="translate(119 1478.104)"/><circle class="c" cx="3.948" cy="3.948" r="3.948" transform="translate(129.265 1478.104)"/></g><g transform="translate(321 -1466.104)"><circle class="c" cx="3.948" cy="3.948" r="3.948" transform="translate(119 1478.104)"/><circle class="c" cx="3.948" cy="3.948" r="3.948" transform="translate(129.265 1478.104)"/></g><g transform="translate(-119 -1454.104)"><circle class="c" cx="3.948" cy="3.948" r="3.948" transform="translate(119 1478.104)"/><circle class="c" cx="3.948" cy="3.948" r="3.948" transform="translate(129.265 1478.104)"/></g><g transform="translate(-97 -1454.104)"><circle class="c" cx="3.948" cy="3.948" r="3.948" transform="translate(119 1478.104)"/><circle class="c" cx="3.948" cy="3.948" r="3.948" transform="translate(129.265 1478.104)"/></g><g transform="translate(-75 -1454.104)"><circle class="c" cx="3.948" cy="3.948" r="3.948" transform="translate(119 1478.104)"/><circle class="c" cx="3.948" cy="3.948" r="3.948" transform="translate(129.265 1478.104)"/></g><g transform="translate(-53 -1454.104)"><circle class="c" cx="3.948" cy="3.948" r="3.948" transform="translate(119 1478.104)"/><circle class="c" cx="3.948" cy="3.948" r="3.948" transform="translate(129.265 1478.104)"/></g><g transform="translate(-31 -1454.104)"><circle class="c" cx="3.948" cy="3.948" r="3.948" transform="translate(119 1478.104)"/><circle class="c" cx="3.948" cy="3.948" r="3.948" transform="translate(129.265 1478.104)"/></g><g transform="translate(-9 -1454.104)"><circle class="c" cx="3.948" cy="3.948" r="3.948" transform="translate(119 1478.104)"/><circle class="c" cx="3.948" cy="3.948" r="3.948" transform="translate(129.265 1478.104)"/></g><g transform="translate(13 -1454.104)"><circle class="c" cx="3.948" cy="3.948" r="3.948" transform="translate(119 1478.104)"/><circle class="c" cx="3.948" cy="3.948" r="3.948" transform="translate(129.265 1478.104)"/></g><g transform="translate(35 -1454.104)"><circle class="c" cx="3.948" cy="3.948" r="3.948" transform="translate(119 1478.104)"/><circle class="c" cx="3.948" cy="3.948" r="3.948" transform="translate(129.265 1478.104)"/></g><g transform="translate(57 -1454.104)"><circle class="c" cx="3.948" cy="3.948" r="3.948" transform="translate(119 1478.104)"/><circle class="c" cx="3.948" cy="3.948" r="3.948" transform="translate(129.265 1478.104)"/></g><g transform="translate(79 -1454.104)"><circle class="c" cx="3.948" cy="3.948" r="3.948" transform="translate(119 1478.104)"/><circle class="c" cx="3.948" cy="3.948" r="3.948" transform="translate(129.265 1478.104)"/></g><g transform="translate(101 -1454.104)"><circle class="c" cx="3.948" cy="3.948" r="3.948" transform="translate(119 1478.104)"/><circle class="c" cx="3.948" cy="3.948" r="3.948" transform="translate(129.265 1478.104)"/></g><g transform="translate(123 -1454.104)"><circle class="c" cx="3.948" cy="3.948" r="3.948" transform="translate(119 1478.104)"/><circle class="c" cx="3.948" cy="3.948" r="3.948" transform="translate(129.265 1478.104)"/></g><g transform="translate(145 -1454.104)"><circle class="c" cx="3.948" cy="3.948" r="3.948" transform="translate(119 1478.104)"/><circle class="c" cx="3.948" cy="3.948" r="3.948" transform="translate(129.265 1478.104)"/></g><g transform="translate(167 -1454.104)"><circle class="c" cx="3.948" cy="3.948" r="3.948" transform="translate(119 1478.104)"/><circle class="c" cx="3.948" cy="3.948" r="3.948" transform="translate(129.265 1478.104)"/></g><g transform="translate(189 -1454.104)"><circle class="c" cx="3.948" cy="3.948" r="3.948" transform="translate(119 1478.104)"/><circle class="c" cx="3.948" cy="3.948" r="3.948" transform="translate(129.265 1478.104)"/></g><g transform="translate(211 -1454.104)"><circle class="c" cx="3.948" cy="3.948" r="3.948" transform="translate(119 1478.104)"/><circle class="c" cx="3.948" cy="3.948" r="3.948" transform="translate(129.265 1478.104)"/></g><g transform="translate(233 -1454.104)"><circle class="c" cx="3.948" cy="3.948" r="3.948" transform="translate(119 1478.104)"/><circle class="c" cx="3.948" cy="3.948" r="3.948" transform="translate(129.265 1478.104)"/></g><g transform="translate(255 -1454.104)"><circle class="c" cx="3.948" cy="3.948" r="3.948" transform="translate(119 1478.104)"/><circle class="c" cx="3.948" cy="3.948" r="3.948" transform="translate(129.265 1478.104)"/></g><g transform="translate(277 -1454.104)"><circle class="c" cx="3.948" cy="3.948" r="3.948" transform="translate(119 1478.104)"/><circle class="c" cx="3.948" cy="3.948" r="3.948" transform="translate(129.265 1478.104)"/></g><g transform="translate(299 -1454.104)"><circle class="c" cx="3.948" cy="3.948" r="3.948" transform="translate(119 1478.104)"/><circle class="c" cx="3.948" cy="3.948" r="3.948" transform="translate(129.265 1478.104)"/></g><g transform="translate(321 -1454.104)"><circle class="c" cx="3.948" cy="3.948" r="3.948" transform="translate(119 1478.104)"/><circle class="c" cx="3.948" cy="3.948" r="3.948" transform="translate(129.265 1478.104)"/></g><g transform="translate(-119 -1442.104)"><circle class="c" cx="3.948" cy="3.948" r="3.948" transform="translate(119 1478.104)"/><circle class="c" cx="3.948" cy="3.948" r="3.948" transform="translate(129.265 1478.104)"/></g><g transform="translate(-97 -1442.104)"><circle class="c" cx="3.948" cy="3.948" r="3.948" transform="translate(119 1478.104)"/><circle class="c" cx="3.948" cy="3.948" r="3.948" transform="translate(129.265 1478.104)"/></g><g transform="translate(-75 -1442.104)"><circle class="c" cx="3.948" cy="3.948" r="3.948" transform="translate(119 1478.104)"/><circle class="c" cx="3.948" cy="3.948" r="3.948" transform="translate(129.265 1478.104)"/></g><g transform="translate(-53 -1442.104)"><circle class="c" cx="3.948" cy="3.948" r="3.948" transform="translate(119 1478.104)"/><circle class="c" cx="3.948" cy="3.948" r="3.948" transform="translate(129.265 1478.104)"/></g><g transform="translate(-31 -1442.104)"><circle class="c" cx="3.948" cy="3.948" r="3.948" transform="translate(119 1478.104)"/><circle class="c" cx="3.948" cy="3.948" r="3.948" transform="translate(129.265 1478.104)"/></g><g transform="translate(-9 -1442.104)"><circle class="c" cx="3.948" cy="3.948" r="3.948" transform="translate(119 1478.104)"/><circle class="c" cx="3.948" cy="3.948" r="3.948" transform="translate(129.265 1478.104)"/></g><g transform="translate(13 -1442.104)"><circle class="c" cx="3.948" cy="3.948" r="3.948" transform="translate(119 1478.104)"/><circle class="c" cx="3.948" cy="3.948" r="3.948" transform="translate(129.265 1478.104)"/></g><g transform="translate(35 -1442.104)"><circle class="c" cx="3.948" cy="3.948" r="3.948" transform="translate(119 1478.104)"/><circle class="c" cx="3.948" cy="3.948" r="3.948" transform="translate(129.265 1478.104)"/></g><g transform="translate(57 -1442.104)"><circle class="c" cx="3.948" cy="3.948" r="3.948" transform="translate(119 1478.104)"/><circle class="c" cx="3.948" cy="3.948" r="3.948" transform="translate(129.265 1478.104)"/></g><g transform="translate(79 -1442.104)"><circle class="c" cx="3.948" cy="3.948" r="3.948" transform="translate(119 1478.104)"/><circle class="c" cx="3.948" cy="3.948" r="3.948" transform="translate(129.265 1478.104)"/></g><g transform="translate(101 -1442.104)"><circle class="c" cx="3.948" cy="3.948" r="3.948" transform="translate(119 1478.104)"/><circle class="c" cx="3.948" cy="3.948" r="3.948" transform="translate(129.265 1478.104)"/></g><g transform="translate(123 -1442.104)"><circle class="c" cx="3.948" cy="3.948" r="3.948" transform="translate(119 1478.104)"/><circle class="c" cx="3.948" cy="3.948" r="3.948" transform="translate(129.265 1478.104)"/></g><g transform="translate(145 -1442.104)"><circle class="c" cx="3.948" cy="3.948" r="3.948" transform="translate(119 1478.104)"/><circle class="c" cx="3.948" cy="3.948" r="3.948" transform="translate(129.265 1478.104)"/></g><g transform="translate(167 -1442.104)"><circle class="c" cx="3.948" cy="3.948" r="3.948" transform="translate(119 1478.104)"/><circle class="c" cx="3.948" cy="3.948" r="3.948" transform="translate(129.265 1478.104)"/></g><g transform="translate(189 -1442.104)"><circle class="c" cx="3.948" cy="3.948" r="3.948" transform="translate(119 1478.104)"/><circle class="c" cx="3.948" cy="3.948" r="3.948" transform="translate(129.265 1478.104)"/></g><g transform="translate(211 -1442.104)"><circle class="c" cx="3.948" cy="3.948" r="3.948" transform="translate(119 1478.104)"/><circle class="c" cx="3.948" cy="3.948" r="3.948" transform="translate(129.265 1478.104)"/></g><g transform="translate(233 -1442.104)"><circle class="c" cx="3.948" cy="3.948" r="3.948" transform="translate(119 1478.104)"/><circle class="c" cx="3.948" cy="3.948" r="3.948" transform="translate(129.265 1478.104)"/></g><g transform="translate(255 -1442.104)"><circle class="c" cx="3.948" cy="3.948" r="3.948" transform="translate(119 1478.104)"/><circle class="c" cx="3.948" cy="3.948" r="3.948" transform="translate(129.265 1478.104)"/></g><g transform="translate(277 -1442.104)"><circle class="c" cx="3.948" cy="3.948" r="3.948" transform="translate(119 1478.104)"/><circle class="c" cx="3.948" cy="3.948" r="3.948" transform="translate(129.265 1478.104)"/></g><g transform="translate(299 -1442.104)"><circle class="c" cx="3.948" cy="3.948" r="3.948" transform="translate(119 1478.104)"/><circle class="c" cx="3.948" cy="3.948" r="3.948" transform="translate(129.265 1478.104)"/></g><g transform="translate(321 -1442.104)"><circle class="c" cx="3.948" cy="3.948" r="3.948" transform="translate(119 1478.104)"/><circle class="c" cx="3.948" cy="3.948" r="3.948" transform="translate(129.265 1478.104)"/></g><g transform="translate(-119 -1430.104)"><circle class="c" cx="3.948" cy="3.948" r="3.948" transform="translate(119 1478.104)"/><circle class="c" cx="3.948" cy="3.948" r="3.948" transform="translate(129.265 1478.104)"/></g><g transform="translate(-97 -1430.104)"><circle class="c" cx="3.948" cy="3.948" r="3.948" transform="translate(119 1478.104)"/><circle class="c" cx="3.948" cy="3.948" r="3.948" transform="translate(129.265 1478.104)"/></g><g transform="translate(-75 -1430.104)"><circle class="c" cx="3.948" cy="3.948" r="3.948" transform="translate(119 1478.104)"/><circle class="c" cx="3.948" cy="3.948" r="3.948" transform="translate(129.265 1478.104)"/></g><g transform="translate(-53 -1430.104)"><circle class="c" cx="3.948" cy="3.948" r="3.948" transform="translate(119 1478.104)"/><circle class="c" cx="3.948" cy="3.948" r="3.948" transform="translate(129.265 1478.104)"/></g><g transform="translate(-31 -1430.104)"><circle class="c" cx="3.948" cy="3.948" r="3.948" transform="translate(119 1478.104)"/><circle class="c" cx="3.948" cy="3.948" r="3.948" transform="translate(129.265 1478.104)"/></g><g transform="translate(-9 -1430.104)"><circle class="c" cx="3.948" cy="3.948" r="3.948" transform="translate(119 1478.104)"/><circle class="c" cx="3.948" cy="3.948" r="3.948" transform="translate(129.265 1478.104)"/></g><g transform="translate(13 -1430.104)"><circle class="c" cx="3.948" cy="3.948" r="3.948" transform="translate(119 1478.104)"/><circle class="c" cx="3.948" cy="3.948" r="3.948" transform="translate(129.265 1478.104)"/></g><g transform="translate(35 -1430.104)"><circle class="c" cx="3.948" cy="3.948" r="3.948" transform="translate(119 1478.104)"/><circle class="c" cx="3.948" cy="3.948" r="3.948" transform="translate(129.265 1478.104)"/></g><g transform="translate(57 -1430.104)"><circle class="c" cx="3.948" cy="3.948" r="3.948" transform="translate(119 1478.104)"/><circle class="c" cx="3.948" cy="3.948" r="3.948" transform="translate(129.265 1478.104)"/></g><g transform="translate(79 -1430.104)"><circle class="c" cx="3.948" cy="3.948" r="3.948" transform="translate(119 1478.104)"/><circle class="c" cx="3.948" cy="3.948" r="3.948" transform="translate(129.265 1478.104)"/></g><g transform="translate(101 -1430.104)"><circle class="c" cx="3.948" cy="3.948" r="3.948" transform="translate(119 1478.104)"/><circle class="c" cx="3.948" cy="3.948" r="3.948" transform="translate(129.265 1478.104)"/></g><g transform="translate(123 -1430.104)"><circle class="c" cx="3.948" cy="3.948" r="3.948" transform="translate(119 1478.104)"/><circle class="c" cx="3.948" cy="3.948" r="3.948" transform="translate(129.265 1478.104)"/></g><g transform="translate(145 -1430.104)"><circle class="c" cx="3.948" cy="3.948" r="3.948" transform="translate(119 1478.104)"/><circle class="c" cx="3.948" cy="3.948" r="3.948" transform="translate(129.265 1478.104)"/></g><g transform="translate(167 -1430.104)"><circle class="c" cx="3.948" cy="3.948" r="3.948" transform="translate(119 1478.104)"/><circle class="c" cx="3.948" cy="3.948" r="3.948" transform="translate(129.265 1478.104)"/></g><g transform="translate(189 -1430.104)"><circle class="c" cx="3.948" cy="3.948" r="3.948" transform="translate(119 1478.104)"/><circle class="c" cx="3.948" cy="3.948" r="3.948" transform="translate(129.265 1478.104)"/></g><g transform="translate(211 -1430.104)"><circle class="c" cx="3.948" cy="3.948" r="3.948" transform="translate(119 1478.104)"/><circle class="c" cx="3.948" cy="3.948" r="3.948" transform="translate(129.265 1478.104)"/></g><g transform="translate(233 -1430.104)"><circle class="c" cx="3.948" cy="3.948" r="3.948" transform="translate(119 1478.104)"/><circle class="c" cx="3.948" cy="3.948" r="3.948" transform="translate(129.265 1478.104)"/></g><g transform="translate(255 -1430.104)"><circle class="c" cx="3.948" cy="3.948" r="3.948" transform="translate(119 1478.104)"/><circle class="c" cx="3.948" cy="3.948" r="3.948" transform="translate(129.265 1478.104)"/></g><g transform="translate(277 -1430.104)"><circle class="c" cx="3.948" cy="3.948" r="3.948" transform="translate(119 1478.104)"/><circle class="c" cx="3.948" cy="3.948" r="3.948" transform="translate(129.265 1478.104)"/></g><g transform="translate(299 -1430.104)"><circle class="c" cx="3.948" cy="3.948" r="3.948" transform="translate(119 1478.104)"/><circle class="c" cx="3.948" cy="3.948" r="3.948" transform="translate(129.265 1478.104)"/></g><g transform="translate(321 -1430.104)"><circle class="c" cx="3.948" cy="3.948" r="3.948" transform="translate(119 1478.104)"/><circle class="c" cx="3.948" cy="3.948" r="3.948" transform="translate(129.265 1478.104)"/></g><g transform="translate(-119 -1418.104)"><circle class="c" cx="3.948" cy="3.948" r="3.948" transform="translate(119 1478.104)"/><circle class="c" cx="3.948" cy="3.948" r="3.948" transform="translate(129.265 1478.104)"/></g><g transform="translate(-97 -1418.104)"><circle class="c" cx="3.948" cy="3.948" r="3.948" transform="translate(119 1478.104)"/><circle class="c" cx="3.948" cy="3.948" r="3.948" transform="translate(129.265 1478.104)"/></g><g transform="translate(-75 -1418.104)"><circle class="c" cx="3.948" cy="3.948" r="3.948" transform="translate(119 1478.104)"/><circle class="c" cx="3.948" cy="3.948" r="3.948" transform="translate(129.265 1478.104)"/></g><g transform="translate(-53 -1418.104)"><circle class="c" cx="3.948" cy="3.948" r="3.948" transform="translate(119 1478.104)"/><circle class="c" cx="3.948" cy="3.948" r="3.948" transform="translate(129.265 1478.104)"/></g><g transform="translate(-31 -1418.104)"><circle class="c" cx="3.948" cy="3.948" r="3.948" transform="translate(119 1478.104)"/><circle class="c" cx="3.948" cy="3.948" r="3.948" transform="translate(129.265 1478.104)"/></g><g transform="translate(-9 -1418.104)"><circle class="c" cx="3.948" cy="3.948" r="3.948" transform="translate(119 1478.104)"/><circle class="c" cx="3.948" cy="3.948" r="3.948" transform="translate(129.265 1478.104)"/></g><g transform="translate(13 -1418.104)"><circle class="c" cx="3.948" cy="3.948" r="3.948" transform="translate(119 1478.104)"/><circle class="c" cx="3.948" cy="3.948" r="3.948" transform="translate(129.265 1478.104)"/></g><g transform="translate(35 -1418.104)"><circle class="c" cx="3.948" cy="3.948" r="3.948" transform="translate(119 1478.104)"/><circle class="c" cx="3.948" cy="3.948" r="3.948" transform="translate(129.265 1478.104)"/></g><g transform="translate(57 -1418.104)"><circle class="c" cx="3.948" cy="3.948" r="3.948" transform="translate(119 1478.104)"/><circle class="c" cx="3.948" cy="3.948" r="3.948" transform="translate(129.265 1478.104)"/></g><g transform="translate(79 -1418.104)"><circle class="c" cx="3.948" cy="3.948" r="3.948" transform="translate(119 1478.104)"/><circle class="c" cx="3.948" cy="3.948" r="3.948" transform="translate(129.265 1478.104)"/></g><g transform="translate(101 -1418.104)"><circle class="c" cx="3.948" cy="3.948" r="3.948" transform="translate(119 1478.104)"/><circle class="c" cx="3.948" cy="3.948" r="3.948" transform="translate(129.265 1478.104)"/></g><g transform="translate(123 -1418.104)"><circle class="c" cx="3.948" cy="3.948" r="3.948" transform="translate(119 1478.104)"/><circle class="c" cx="3.948" cy="3.948" r="3.948" transform="translate(129.265 1478.104)"/></g><g transform="translate(145 -1418.104)"><circle class="c" cx="3.948" cy="3.948" r="3.948" transform="translate(119 1478.104)"/><circle class="c" cx="3.948" cy="3.948" r="3.948" transform="translate(129.265 1478.104)"/></g><g transform="translate(167 -1418.104)"><circle class="c" cx="3.948" cy="3.948" r="3.948" transform="translate(119 1478.104)"/><circle class="c" cx="3.948" cy="3.948" r="3.948" transform="translate(129.265 1478.104)"/></g><g transform="translate(189 -1418.104)"><circle class="c" cx="3.948" cy="3.948" r="3.948" transform="translate(119 1478.104)"/><circle class="c" cx="3.948" cy="3.948" r="3.948" transform="translate(129.265 1478.104)"/></g><g transform="translate(211 -1418.104)"><circle class="c" cx="3.948" cy="3.948" r="3.948" transform="translate(119 1478.104)"/><circle class="c" cx="3.948" cy="3.948" r="3.948" transform="translate(129.265 1478.104)"/></g><g transform="translate(233 -1418.104)"><circle class="c" cx="3.948" cy="3.948" r="3.948" transform="translate(119 1478.104)"/><circle class="c" cx="3.948" cy="3.948" r="3.948" transform="translate(129.265 1478.104)"/></g><g transform="translate(255 -1418.104)"><circle class="c" cx="3.948" cy="3.948" r="3.948" transform="translate(119 1478.104)"/><circle class="c" cx="3.948" cy="3.948" r="3.948" transform="translate(129.265 1478.104)"/></g><g transform="translate(277 -1418.104)"><circle class="c" cx="3.948" cy="3.948" r="3.948" transform="translate(119 1478.104)"/><circle class="c" cx="3.948" cy="3.948" r="3.948" transform="translate(129.265 1478.104)"/></g><g transform="translate(299 -1418.104)"><circle class="c" cx="3.948" cy="3.948" r="3.948" transform="translate(119 1478.104)"/><circle class="c" cx="3.948" cy="3.948" r="3.948" transform="translate(129.265 1478.104)"/></g><g transform="translate(321 -1418.104)"><circle class="c" cx="3.948" cy="3.948" r="3.948" transform="translate(119 1478.104)"/><circle class="c" cx="3.948" cy="3.948" r="3.948" transform="translate(129.265 1478.104)"/></g><g transform="translate(-119 -1406.104)"><circle class="c" cx="3.948" cy="3.948" r="3.948" transform="translate(119 1478.104)"/><circle class="c" cx="3.948" cy="3.948" r="3.948" transform="translate(129.265 1478.104)"/></g><g transform="translate(-97 -1406.104)"><circle class="c" cx="3.948" cy="3.948" r="3.948" transform="translate(119 1478.104)"/><circle class="c" cx="3.948" cy="3.948" r="3.948" transform="translate(129.265 1478.104)"/></g><g transform="translate(-75 -1406.104)"><circle class="c" cx="3.948" cy="3.948" r="3.948" transform="translate(119 1478.104)"/><circle class="c" cx="3.948" cy="3.948" r="3.948" transform="translate(129.265 1478.104)"/></g><g transform="translate(-53 -1406.104)"><circle class="c" cx="3.948" cy="3.948" r="3.948" transform="translate(119 1478.104)"/><circle class="c" cx="3.948" cy="3.948" r="3.948" transform="translate(129.265 1478.104)"/></g><g transform="translate(-31 -1406.104)"><circle class="c" cx="3.948" cy="3.948" r="3.948" transform="translate(119 1478.104)"/><circle class="c" cx="3.948" cy="3.948" r="3.948" transform="translate(129.265 1478.104)"/></g><g transform="translate(-9 -1406.104)"><circle class="c" cx="3.948" cy="3.948" r="3.948" transform="translate(119 1478.104)"/><circle class="c" cx="3.948" cy="3.948" r="3.948" transform="translate(129.265 1478.104)"/></g><g transform="translate(13 -1406.104)"><circle class="c" cx="3.948" cy="3.948" r="3.948" transform="translate(119 1478.104)"/><circle class="c" cx="3.948" cy="3.948" r="3.948" transform="translate(129.265 1478.104)"/></g><g transform="translate(35 -1406.104)"><circle class="c" cx="3.948" cy="3.948" r="3.948" transform="translate(119 1478.104)"/><circle class="c" cx="3.948" cy="3.948" r="3.948" transform="translate(129.265 1478.104)"/></g><g transform="translate(57 -1406.104)"><circle class="c" cx="3.948" cy="3.948" r="3.948" transform="translate(119 1478.104)"/><circle class="c" cx="3.948" cy="3.948" r="3.948" transform="translate(129.265 1478.104)"/></g><g transform="translate(79 -1406.104)"><circle class="c" cx="3.948" cy="3.948" r="3.948" transform="translate(119 1478.104)"/><circle class="c" cx="3.948" cy="3.948" r="3.948" transform="translate(129.265 1478.104)"/></g><g transform="translate(101 -1406.104)"><circle class="c" cx="3.948" cy="3.948" r="3.948" transform="translate(119 1478.104)"/><circle class="c" cx="3.948" cy="3.948" r="3.948" transform="translate(129.265 1478.104)"/></g><g transform="translate(123 -1406.104)"><circle class="c" cx="3.948" cy="3.948" r="3.948" transform="translate(119 1478.104)"/><circle class="c" cx="3.948" cy="3.948" r="3.948" transform="translate(129.265 1478.104)"/></g><g transform="translate(145 -1406.104)"><circle class="c" cx="3.948" cy="3.948" r="3.948" transform="translate(119 1478.104)"/><circle class="c" cx="3.948" cy="3.948" r="3.948" transform="translate(129.265 1478.104)"/></g><g transform="translate(167 -1406.104)"><circle class="c" cx="3.948" cy="3.948" r="3.948" transform="translate(119 1478.104)"/><circle class="c" cx="3.948" cy="3.948" r="3.948" transform="translate(129.265 1478.104)"/></g><g transform="translate(189 -1406.104)"><circle class="c" cx="3.948" cy="3.948" r="3.948" transform="translate(119 1478.104)"/><circle class="c" cx="3.948" cy="3.948" r="3.948" transform="translate(129.265 1478.104)"/></g><g transform="translate(211 -1406.104)"><circle class="c" cx="3.948" cy="3.948" r="3.948" transform="translate(119 1478.104)"/><circle class="c" cx="3.948" cy="3.948" r="3.948" transform="translate(129.265 1478.104)"/></g><g transform="translate(233 -1406.104)"><circle class="c" cx="3.948" cy="3.948" r="3.948" transform="translate(119 1478.104)"/><circle class="c" cx="3.948" cy="3.948" r="3.948" transform="translate(129.265 1478.104)"/></g><g transform="translate(255 -1406.104)"><circle class="c" cx="3.948" cy="3.948" r="3.948" transform="translate(119 1478.104)"/><circle class="c" cx="3.948" cy="3.948" r="3.948" transform="translate(129.265 1478.104)"/></g><g transform="translate(277 -1406.104)"><circle class="c" cx="3.948" cy="3.948" r="3.948" transform="translate(119 1478.104)"/><circle class="c" cx="3.948" cy="3.948" r="3.948" transform="translate(129.265 1478.104)"/></g><g transform="translate(299 -1406.104)"><circle class="c" cx="3.948" cy="3.948" r="3.948" transform="translate(119 1478.104)"/><circle class="c" cx="3.948" cy="3.948" r="3.948" transform="translate(129.265 1478.104)"/></g><g transform="translate(321 -1406.104)"><circle class="c" cx="3.948" cy="3.948" r="3.948" transform="translate(119 1478.104)"/><circle class="c" cx="3.948" cy="3.948" r="3.948" transform="translate(129.265 1478.104)"/></g><g transform="translate(-119 -1394.104)"><circle class="c" cx="3.948" cy="3.948" r="3.948" transform="translate(119 1478.104)"/><circle class="c" cx="3.948" cy="3.948" r="3.948" transform="translate(129.265 1478.104)"/></g><g transform="translate(-97 -1394.104)"><circle class="c" cx="3.948" cy="3.948" r="3.948" transform="translate(119 1478.104)"/><circle class="c" cx="3.948" cy="3.948" r="3.948" transform="translate(129.265 1478.104)"/></g><g transform="translate(-75 -1394.104)"><circle class="c" cx="3.948" cy="3.948" r="3.948" transform="translate(119 1478.104)"/><circle class="c" cx="3.948" cy="3.948" r="3.948" transform="translate(129.265 1478.104)"/></g><g transform="translate(-53 -1394.104)"><circle class="c" cx="3.948" cy="3.948" r="3.948" transform="translate(119 1478.104)"/><circle class="c" cx="3.948" cy="3.948" r="3.948" transform="translate(129.265 1478.104)"/></g><g transform="translate(-31 -1394.104)"><circle class="c" cx="3.948" cy="3.948" r="3.948" transform="translate(119 1478.104)"/><circle class="c" cx="3.948" cy="3.948" r="3.948" transform="translate(129.265 1478.104)"/></g><g transform="translate(-9 -1394.104)"><circle class="c" cx="3.948" cy="3.948" r="3.948" transform="translate(119 1478.104)"/><circle class="c" cx="3.948" cy="3.948" r="3.948" transform="translate(129.265 1478.104)"/></g><g transform="translate(13 -1394.104)"><circle class="c" cx="3.948" cy="3.948" r="3.948" transform="translate(119 1478.104)"/><circle class="c" cx="3.948" cy="3.948" r="3.948" transform="translate(129.265 1478.104)"/></g><g transform="translate(35 -1394.104)"><circle class="c" cx="3.948" cy="3.948" r="3.948" transform="translate(119 1478.104)"/><circle class="c" cx="3.948" cy="3.948" r="3.948" transform="translate(129.265 1478.104)"/></g><g transform="translate(57 -1394.104)"><circle class="c" cx="3.948" cy="3.948" r="3.948" transform="translate(119 1478.104)"/><circle class="c" cx="3.948" cy="3.948" r="3.948" transform="translate(129.265 1478.104)"/></g><g transform="translate(79 -1394.104)"><circle class="c" cx="3.948" cy="3.948" r="3.948" transform="translate(119 1478.104)"/><circle class="c" cx="3.948" cy="3.948" r="3.948" transform="translate(129.265 1478.104)"/></g><g transform="translate(101 -1394.104)"><circle class="c" cx="3.948" cy="3.948" r="3.948" transform="translate(119 1478.104)"/><circle class="c" cx="3.948" cy="3.948" r="3.948" transform="translate(129.265 1478.104)"/></g><g transform="translate(123 -1394.104)"><circle class="c" cx="3.948" cy="3.948" r="3.948" transform="translate(119 1478.104)"/><circle class="c" cx="3.948" cy="3.948" r="3.948" transform="translate(129.265 1478.104)"/></g><g transform="translate(145 -1394.104)"><circle class="c" cx="3.948" cy="3.948" r="3.948" transform="translate(119 1478.104)"/><circle class="c" cx="3.948" cy="3.948" r="3.948" transform="translate(129.265 1478.104)"/></g><g transform="translate(167 -1394.104)"><circle class="c" cx="3.948" cy="3.948" r="3.948" transform="translate(119 1478.104)"/><circle class="c" cx="3.948" cy="3.948" r="3.948" transform="translate(129.265 1478.104)"/></g><g transform="translate(189 -1394.104)"><circle class="c" cx="3.948" cy="3.948" r="3.948" transform="translate(119 1478.104)"/><circle class="c" cx="3.948" cy="3.948" r="3.948" transform="translate(129.265 1478.104)"/></g><g transform="translate(211 -1394.104)"><circle class="c" cx="3.948" cy="3.948" r="3.948" transform="translate(119 1478.104)"/><circle class="c" cx="3.948" cy="3.948" r="3.948" transform="translate(129.265 1478.104)"/></g><g transform="translate(233 -1394.104)"><circle class="c" cx="3.948" cy="3.948" r="3.948" transform="translate(119 1478.104)"/><circle class="c" cx="3.948" cy="3.948" r="3.948" transform="translate(129.265 1478.104)"/></g><g transform="translate(255 -1394.104)"><circle class="c" cx="3.948" cy="3.948" r="3.948" transform="translate(119 1478.104)"/><circle class="c" cx="3.948" cy="3.948" r="3.948" transform="translate(129.265 1478.104)"/></g><g transform="translate(277 -1394.104)"><circle class="c" cx="3.948" cy="3.948" r="3.948" transform="translate(119 1478.104)"/><circle class="c" cx="3.948" cy="3.948" r="3.948" transform="translate(129.265 1478.104)"/></g><g transform="translate(299 -1394.104)"><circle class="c" cx="3.948" cy="3.948" r="3.948" transform="translate(119 1478.104)"/><circle class="c" cx="3.948" cy="3.948" r="3.948" transform="translate(129.265 1478.104)"/></g><g transform="translate(321 -1394.104)"><circle class="c" cx="3.948" cy="3.948" r="3.948" transform="translate(119 1478.104)"/><circle class="c" cx="3.948" cy="3.948" r="3.948" transform="translate(129.265 1478.104)"/></g><g transform="translate(-119 -1382.104)"><circle class="c" cx="3.948" cy="3.948" r="3.948" transform="translate(119 1478.104)"/><circle class="c" cx="3.948" cy="3.948" r="3.948" transform="translate(129.265 1478.104)"/></g><g transform="translate(-97 -1382.104)"><circle class="c" cx="3.948" cy="3.948" r="3.948" transform="translate(119 1478.104)"/><circle class="c" cx="3.948" cy="3.948" r="3.948" transform="translate(129.265 1478.104)"/></g><g transform="translate(-75 -1382.104)"><circle class="c" cx="3.948" cy="3.948" r="3.948" transform="translate(119 1478.104)"/><circle class="c" cx="3.948" cy="3.948" r="3.948" transform="translate(129.265 1478.104)"/></g><g transform="translate(-53 -1382.104)"><circle class="c" cx="3.948" cy="3.948" r="3.948" transform="translate(119 1478.104)"/><circle class="c" cx="3.948" cy="3.948" r="3.948" transform="translate(129.265 1478.104)"/></g><g transform="translate(-31 -1382.104)"><circle class="c" cx="3.948" cy="3.948" r="3.948" transform="translate(119 1478.104)"/><circle class="c" cx="3.948" cy="3.948" r="3.948" transform="translate(129.265 1478.104)"/></g><g transform="translate(-9 -1382.104)"><circle class="c" cx="3.948" cy="3.948" r="3.948" transform="translate(119 1478.104)"/><circle class="c" cx="3.948" cy="3.948" r="3.948" transform="translate(129.265 1478.104)"/></g><g transform="translate(13 -1382.104)"><circle class="c" cx="3.948" cy="3.948" r="3.948" transform="translate(119 1478.104)"/><circle class="c" cx="3.948" cy="3.948" r="3.948" transform="translate(129.265 1478.104)"/></g><g transform="translate(35 -1382.104)"><circle class="c" cx="3.948" cy="3.948" r="3.948" transform="translate(119 1478.104)"/><circle class="c" cx="3.948" cy="3.948" r="3.948" transform="translate(129.265 1478.104)"/></g><g transform="translate(57 -1382.104)"><circle class="c" cx="3.948" cy="3.948" r="3.948" transform="translate(119 1478.104)"/><circle class="c" cx="3.948" cy="3.948" r="3.948" transform="translate(129.265 1478.104)"/></g><g transform="translate(79 -1382.104)"><circle class="c" cx="3.948" cy="3.948" r="3.948" transform="translate(119 1478.104)"/><circle class="c" cx="3.948" cy="3.948" r="3.948" transform="translate(129.265 1478.104)"/></g><g transform="translate(101 -1382.104)"><circle class="c" cx="3.948" cy="3.948" r="3.948" transform="translate(119 1478.104)"/><circle class="c" cx="3.948" cy="3.948" r="3.948" transform="translate(129.265 1478.104)"/></g><g transform="translate(123 -1382.104)"><circle class="c" cx="3.948" cy="3.948" r="3.948" transform="translate(119 1478.104)"/><circle class="c" cx="3.948" cy="3.948" r="3.948" transform="translate(129.265 1478.104)"/></g><g transform="translate(145 -1382.104)"><circle class="c" cx="3.948" cy="3.948" r="3.948" transform="translate(119 1478.104)"/><circle class="c" cx="3.948" cy="3.948" r="3.948" transform="translate(129.265 1478.104)"/></g><g transform="translate(167 -1382.104)"><circle class="c" cx="3.948" cy="3.948" r="3.948" transform="translate(119 1478.104)"/><circle class="c" cx="3.948" cy="3.948" r="3.948" transform="translate(129.265 1478.104)"/></g><g transform="translate(189 -1382.104)"><circle class="c" cx="3.948" cy="3.948" r="3.948" transform="translate(119 1478.104)"/><circle class="c" cx="3.948" cy="3.948" r="3.948" transform="translate(129.265 1478.104)"/></g><g transform="translate(211 -1382.104)"><circle class="c" cx="3.948" cy="3.948" r="3.948" transform="translate(119 1478.104)"/><circle class="c" cx="3.948" cy="3.948" r="3.948" transform="translate(129.265 1478.104)"/></g><g transform="translate(233 -1382.104)"><circle class="c" cx="3.948" cy="3.948" r="3.948" transform="translate(119 1478.104)"/><circle class="c" cx="3.948" cy="3.948" r="3.948" transform="translate(129.265 1478.104)"/></g><g transform="translate(255 -1382.104)"><circle class="c" cx="3.948" cy="3.948" r="3.948" transform="translate(119 1478.104)"/><circle class="c" cx="3.948" cy="3.948" r="3.948" transform="translate(129.265 1478.104)"/></g><g transform="translate(277 -1382.104)"><circle class="c" cx="3.948" cy="3.948" r="3.948" transform="translate(119 1478.104)"/><circle class="c" cx="3.948" cy="3.948" r="3.948" transform="translate(129.265 1478.104)"/></g><g transform="translate(299 -1382.104)"><circle class="c" cx="3.948" cy="3.948" r="3.948" transform="translate(119 1478.104)"/><circle class="c" cx="3.948" cy="3.948" r="3.948" transform="translate(129.265 1478.104)"/></g><g transform="translate(321 -1382.104)"><circle class="c" cx="3.948" cy="3.948" r="3.948" transform="translate(119 1478.104)"/><circle class="c" cx="3.948" cy="3.948" r="3.948" transform="translate(129.265 1478.104)"/></g><g transform="translate(-119 -1370.104)"><circle class="c" cx="3.948" cy="3.948" r="3.948" transform="translate(119 1478.104)"/><circle class="c" cx="3.948" cy="3.948" r="3.948" transform="translate(129.265 1478.104)"/></g><g transform="translate(-97 -1370.104)"><circle class="c" cx="3.948" cy="3.948" r="3.948" transform="translate(119 1478.104)"/><circle class="c" cx="3.948" cy="3.948" r="3.948" transform="translate(129.265 1478.104)"/></g><g transform="translate(-75 -1370.104)"><circle class="c" cx="3.948" cy="3.948" r="3.948" transform="translate(119 1478.104)"/><circle class="c" cx="3.948" cy="3.948" r="3.948" transform="translate(129.265 1478.104)"/></g><g transform="translate(-53 -1370.104)"><circle class="c" cx="3.948" cy="3.948" r="3.948" transform="translate(119 1478.104)"/><circle class="c" cx="3.948" cy="3.948" r="3.948" transform="translate(129.265 1478.104)"/></g><g transform="translate(-31 -1370.104)"><circle class="c" cx="3.948" cy="3.948" r="3.948" transform="translate(119 1478.104)"/><circle class="c" cx="3.948" cy="3.948" r="3.948" transform="translate(129.265 1478.104)"/></g><g transform="translate(-9 -1370.104)"><circle class="c" cx="3.948" cy="3.948" r="3.948" transform="translate(119 1478.104)"/><circle class="c" cx="3.948" cy="3.948" r="3.948" transform="translate(129.265 1478.104)"/></g><g transform="translate(13 -1370.104)"><circle class="c" cx="3.948" cy="3.948" r="3.948" transform="translate(119 1478.104)"/><circle class="c" cx="3.948" cy="3.948" r="3.948" transform="translate(129.265 1478.104)"/></g><g transform="translate(35 -1370.104)"><circle class="c" cx="3.948" cy="3.948" r="3.948" transform="translate(119 1478.104)"/><circle class="c" cx="3.948" cy="3.948" r="3.948" transform="translate(129.265 1478.104)"/></g><g transform="translate(57 -1370.104)"><circle class="c" cx="3.948" cy="3.948" r="3.948" transform="translate(119 1478.104)"/><circle class="c" cx="3.948" cy="3.948" r="3.948" transform="translate(129.265 1478.104)"/></g><g transform="translate(79 -1370.104)"><circle class="c" cx="3.948" cy="3.948" r="3.948" transform="translate(119 1478.104)"/><circle class="c" cx="3.948" cy="3.948" r="3.948" transform="translate(129.265 1478.104)"/></g><g transform="translate(101 -1370.104)"><circle class="c" cx="3.948" cy="3.948" r="3.948" transform="translate(119 1478.104)"/><circle class="c" cx="3.948" cy="3.948" r="3.948" transform="translate(129.265 1478.104)"/></g><g transform="translate(123 -1370.104)"><circle class="c" cx="3.948" cy="3.948" r="3.948" transform="translate(119 1478.104)"/><circle class="c" cx="3.948" cy="3.948" r="3.948" transform="translate(129.265 1478.104)"/></g><g transform="translate(145 -1370.104)"><circle class="c" cx="3.948" cy="3.948" r="3.948" transform="translate(119 1478.104)"/><circle class="c" cx="3.948" cy="3.948" r="3.948" transform="translate(129.265 1478.104)"/></g><g transform="translate(167 -1370.104)"><circle class="c" cx="3.948" cy="3.948" r="3.948" transform="translate(119 1478.104)"/><circle class="c" cx="3.948" cy="3.948" r="3.948" transform="translate(129.265 1478.104)"/></g><g transform="translate(189 -1370.104)"><circle class="c" cx="3.948" cy="3.948" r="3.948" transform="translate(119 1478.104)"/><circle class="c" cx="3.948" cy="3.948" r="3.948" transform="translate(129.265 1478.104)"/></g><g transform="translate(211 -1370.104)"><circle class="c" cx="3.948" cy="3.948" r="3.948" transform="translate(119 1478.104)"/><circle class="c" cx="3.948" cy="3.948" r="3.948" transform="translate(129.265 1478.104)"/></g><g transform="translate(233 -1370.104)"><circle class="c" cx="3.948" cy="3.948" r="3.948" transform="translate(119 1478.104)"/><circle class="c" cx="3.948" cy="3.948" r="3.948" transform="translate(129.265 1478.104)"/></g><g transform="translate(255 -1370.104)"><circle class="c" cx="3.948" cy="3.948" r="3.948" transform="translate(119 1478.104)"/><circle class="c" cx="3.948" cy="3.948" r="3.948" transform="translate(129.265 1478.104)"/></g><g transform="translate(277 -1370.104)"><circle class="c" cx="3.948" cy="3.948" r="3.948" transform="translate(119 1478.104)"/><circle class="c" cx="3.948" cy="3.948" r="3.948" transform="translate(129.265 1478.104)"/></g><g transform="translate(299 -1370.104)"><circle class="c" cx="3.948" cy="3.948" r="3.948" transform="translate(119 1478.104)"/><circle class="c" cx="3.948" cy="3.948" r="3.948" transform="translate(129.265 1478.104)"/></g><g transform="translate(321 -1370.104)"><circle class="c" cx="3.948" cy="3.948" r="3.948" transform="translate(119 1478.104)"/><circle class="c" cx="3.948" cy="3.948" r="3.948" transform="translate(129.265 1478.104)"/></g><g transform="translate(-119 -1358.104)"><circle class="c" cx="3.948" cy="3.948" r="3.948" transform="translate(119 1478.104)"/><circle class="c" cx="3.948" cy="3.948" r="3.948" transform="translate(129.265 1478.104)"/></g><g transform="translate(-97 -1358.104)"><circle class="c" cx="3.948" cy="3.948" r="3.948" transform="translate(119 1478.104)"/><circle class="c" cx="3.948" cy="3.948" r="3.948" transform="translate(129.265 1478.104)"/></g><g transform="translate(-75 -1358.104)"><circle class="c" cx="3.948" cy="3.948" r="3.948" transform="translate(119 1478.104)"/><circle class="c" cx="3.948" cy="3.948" r="3.948" transform="translate(129.265 1478.104)"/></g><g transform="translate(-53 -1358.104)"><circle class="c" cx="3.948" cy="3.948" r="3.948" transform="translate(119 1478.104)"/><circle class="c" cx="3.948" cy="3.948" r="3.948" transform="translate(129.265 1478.104)"/></g><g transform="translate(-31 -1358.104)"><circle class="c" cx="3.948" cy="3.948" r="3.948" transform="translate(119 1478.104)"/><circle class="c" cx="3.948" cy="3.948" r="3.948" transform="translate(129.265 1478.104)"/></g><g transform="translate(-9 -1358.104)"><circle class="c" cx="3.948" cy="3.948" r="3.948" transform="translate(119 1478.104)"/><circle class="c" cx="3.948" cy="3.948" r="3.948" transform="translate(129.265 1478.104)"/></g><g transform="translate(13 -1358.104)"><circle class="c" cx="3.948" cy="3.948" r="3.948" transform="translate(119 1478.104)"/><circle class="c" cx="3.948" cy="3.948" r="3.948" transform="translate(129.265 1478.104)"/></g><g transform="translate(35 -1358.104)"><circle class="c" cx="3.948" cy="3.948" r="3.948" transform="translate(119 1478.104)"/><circle class="c" cx="3.948" cy="3.948" r="3.948" transform="translate(129.265 1478.104)"/></g><g transform="translate(57 -1358.104)"><circle class="c" cx="3.948" cy="3.948" r="3.948" transform="translate(119 1478.104)"/><circle class="c" cx="3.948" cy="3.948" r="3.948" transform="translate(129.265 1478.104)"/></g><g transform="translate(79 -1358.104)"><circle class="c" cx="3.948" cy="3.948" r="3.948" transform="translate(119 1478.104)"/><circle class="c" cx="3.948" cy="3.948" r="3.948" transform="translate(129.265 1478.104)"/></g><g transform="translate(101 -1358.104)"><circle class="c" cx="3.948" cy="3.948" r="3.948" transform="translate(119 1478.104)"/><circle class="c" cx="3.948" cy="3.948" r="3.948" transform="translate(129.265 1478.104)"/></g><g transform="translate(123 -1358.104)"><circle class="c" cx="3.948" cy="3.948" r="3.948" transform="translate(119 1478.104)"/><circle class="c" cx="3.948" cy="3.948" r="3.948" transform="translate(129.265 1478.104)"/></g><g transform="translate(145 -1358.104)"><circle class="c" cx="3.948" cy="3.948" r="3.948" transform="translate(119 1478.104)"/><circle class="c" cx="3.948" cy="3.948" r="3.948" transform="translate(129.265 1478.104)"/></g><g transform="translate(167 -1358.104)"><circle class="c" cx="3.948" cy="3.948" r="3.948" transform="translate(119 1478.104)"/><circle class="c" cx="3.948" cy="3.948" r="3.948" transform="translate(129.265 1478.104)"/></g><g transform="translate(189 -1358.104)"><circle class="c" cx="3.948" cy="3.948" r="3.948" transform="translate(119 1478.104)"/><circle class="c" cx="3.948" cy="3.948" r="3.948" transform="translate(129.265 1478.104)"/></g><g transform="translate(211 -1358.104)"><circle class="c" cx="3.948" cy="3.948" r="3.948" transform="translate(119 1478.104)"/><circle class="c" cx="3.948" cy="3.948" r="3.948" transform="translate(129.265 1478.104)"/></g><g transform="translate(233 -1358.104)"><circle class="c" cx="3.948" cy="3.948" r="3.948" transform="translate(119 1478.104)"/><circle class="c" cx="3.948" cy="3.948" r="3.948" transform="translate(129.265 1478.104)"/></g><g transform="translate(255 -1358.104)"><circle class="c" cx="3.948" cy="3.948" r="3.948" transform="translate(119 1478.104)"/><circle class="c" cx="3.948" cy="3.948" r="3.948" transform="translate(129.265 1478.104)"/></g><g transform="translate(277 -1358.104)"><circle class="c" cx="3.948" cy="3.948" r="3.948" transform="translate(119 1478.104)"/><circle class="c" cx="3.948" cy="3.948" r="3.948" transform="translate(129.265 1478.104)"/></g><g transform="translate(299 -1358.104)"><circle class="c" cx="3.948" cy="3.948" r="3.948" transform="translate(119 1478.104)"/><circle class="c" cx="3.948" cy="3.948" r="3.948" transform="translate(129.265 1478.104)"/></g><g transform="translate(321 -1358.104)"><circle class="c" cx="3.948" cy="3.948" r="3.948" transform="translate(119 1478.104)"/><circle class="c" cx="3.948" cy="3.948" r="3.948" transform="translate(129.265 1478.104)"/></g><g transform="translate(-119 -1346.104)"><circle class="c" cx="3.948" cy="3.948" r="3.948" transform="translate(119 1478.104)"/><circle class="c" cx="3.948" cy="3.948" r="3.948" transform="translate(129.265 1478.104)"/></g><g transform="translate(-97 -1346.104)"><circle class="c" cx="3.948" cy="3.948" r="3.948" transform="translate(119 1478.104)"/><circle class="c" cx="3.948" cy="3.948" r="3.948" transform="translate(129.265 1478.104)"/></g><g transform="translate(-75 -1346.104)"><circle class="c" cx="3.948" cy="3.948" r="3.948" transform="translate(119 1478.104)"/><circle class="c" cx="3.948" cy="3.948" r="3.948" transform="translate(129.265 1478.104)"/></g><g transform="translate(-53 -1346.104)"><circle class="c" cx="3.948" cy="3.948" r="3.948" transform="translate(119 1478.104)"/><circle class="c" cx="3.948" cy="3.948" r="3.948" transform="translate(129.265 1478.104)"/></g><g transform="translate(-31 -1346.104)"><circle class="c" cx="3.948" cy="3.948" r="3.948" transform="translate(119 1478.104)"/><circle class="c" cx="3.948" cy="3.948" r="3.948" transform="translate(129.265 1478.104)"/></g><g transform="translate(-9 -1346.104)"><circle class="c" cx="3.948" cy="3.948" r="3.948" transform="translate(119 1478.104)"/><circle class="c" cx="3.948" cy="3.948" r="3.948" transform="translate(129.265 1478.104)"/></g><g transform="translate(13 -1346.104)"><circle class="c" cx="3.948" cy="3.948" r="3.948" transform="translate(119 1478.104)"/><circle class="c" cx="3.948" cy="3.948" r="3.948" transform="translate(129.265 1478.104)"/></g><g transform="translate(35 -1346.104)"><circle class="c" cx="3.948" cy="3.948" r="3.948" transform="translate(119 1478.104)"/><circle class="c" cx="3.948" cy="3.948" r="3.948" transform="translate(129.265 1478.104)"/></g><g transform="translate(57 -1346.104)"><circle class="c" cx="3.948" cy="3.948" r="3.948" transform="translate(119 1478.104)"/><circle class="c" cx="3.948" cy="3.948" r="3.948" transform="translate(129.265 1478.104)"/></g><g transform="translate(79 -1346.104)"><circle class="c" cx="3.948" cy="3.948" r="3.948" transform="translate(119 1478.104)"/><circle class="c" cx="3.948" cy="3.948" r="3.948" transform="translate(129.265 1478.104)"/></g><g transform="translate(101 -1346.104)"><circle class="c" cx="3.948" cy="3.948" r="3.948" transform="translate(119 1478.104)"/><circle class="c" cx="3.948" cy="3.948" r="3.948" transform="translate(129.265 1478.104)"/></g><g transform="translate(123 -1346.104)"><circle class="c" cx="3.948" cy="3.948" r="3.948" transform="translate(119 1478.104)"/><circle class="c" cx="3.948" cy="3.948" r="3.948" transform="translate(129.265 1478.104)"/></g><g transform="translate(145 -1346.104)"><circle class="c" cx="3.948" cy="3.948" r="3.948" transform="translate(119 1478.104)"/><circle class="c" cx="3.948" cy="3.948" r="3.948" transform="translate(129.265 1478.104)"/></g><g transform="translate(167 -1346.104)"><circle class="c" cx="3.948" cy="3.948" r="3.948" transform="translate(119 1478.104)"/><circle class="c" cx="3.948" cy="3.948" r="3.948" transform="translate(129.265 1478.104)"/></g><g transform="translate(189 -1346.104)"><circle class="c" cx="3.948" cy="3.948" r="3.948" transform="translate(119 1478.104)"/><circle class="c" cx="3.948" cy="3.948" r="3.948" transform="translate(129.265 1478.104)"/></g><g transform="translate(211 -1346.104)"><circle class="c" cx="3.948" cy="3.948" r="3.948" transform="translate(119 1478.104)"/><circle class="c" cx="3.948" cy="3.948" r="3.948" transform="translate(129.265 1478.104)"/></g><g transform="translate(233 -1346.104)"><circle class="c" cx="3.948" cy="3.948" r="3.948" transform="translate(119 1478.104)"/><circle class="c" cx="3.948" cy="3.948" r="3.948" transform="translate(129.265 1478.104)"/></g><g transform="translate(255 -1346.104)"><circle class="c" cx="3.948" cy="3.948" r="3.948" transform="translate(119 1478.104)"/><circle class="c" cx="3.948" cy="3.948" r="3.948" transform="translate(129.265 1478.104)"/></g><g transform="translate(277 -1346.104)"><circle class="c" cx="3.948" cy="3.948" r="3.948" transform="translate(119 1478.104)"/><circle class="c" cx="3.948" cy="3.948" r="3.948" transform="translate(129.265 1478.104)"/></g><g transform="translate(299 -1346.104)"><circle class="c" cx="3.948" cy="3.948" r="3.948" transform="translate(119 1478.104)"/><circle class="c" cx="3.948" cy="3.948" r="3.948" transform="translate(129.265 1478.104)"/></g><g transform="translate(321 -1346.104)"><circle class="c" cx="3.948" cy="3.948" r="3.948" transform="translate(119 1478.104)"/><circle class="c" cx="3.948" cy="3.948" r="3.948" transform="translate(129.265 1478.104)"/></g></g></svg>